<svg viewBox="0 0 320 180" xmlns="http://www.w3.org/2000/svg" role="img">
  <title>FIFN — Federated Insurance Fraud Network</title>

  <rect width="320" height="180" fill="#0d0d12" rx="14"/>

  <polygon points="82,60 108,75 108,105 82,120 56,105 56,75"
           fill="#161628" stroke="#7F77DD" stroke-width="1.5"/>
  <circle cx="82" cy="90" r="7" fill="#7F77DD"/>
  <path d="M82 79 L90 84 L90 93 Q90 101 82 105 Q74 101 74 93 L74 84 Z"
        fill="none" stroke="#7F77DD" stroke-width="1.1" stroke-linejoin="round"/>

  <line x1="82" y1="60" x2="82" y2="40" stroke="#3a3470" stroke-width="1" stroke-dasharray="3 2"/>
  <circle cx="82" cy="33" r="6" fill="#161628" stroke="#534AB7" stroke-width="1.2"/>
  <circle cx="82" cy="33" r="2.2" fill="#AFA9EC"/>

  <line x1="108" y1="75" x2="128" y2="55" stroke="#3a3470" stroke-width="1" stroke-dasharray="3 2"/>
  <circle cx="134" cy="49" r="6" fill="#161628" stroke="#534AB7" stroke-width="1.2"/>
  <circle cx="134" cy="49" r="2.2" fill="#AFA9EC"/>

  <line x1="108" y1="105" x2="128" y2="125" stroke="#3a3470" stroke-width="1" stroke-dasharray="3 2"/>
  <circle cx="134" cy="131" r="6" fill="#161628" stroke="#1D9E75" stroke-width="1.2"/>
  <circle cx="134" cy="131" r="2.2" fill="#5DCAA5"/>

  <line x1="56" y1="105" x2="36" y2="125" stroke="#3a3470" stroke-width="1" stroke-dasharray="3 2"/>
  <circle cx="30" cy="131" r="6" fill="#161628" stroke="#1D9E75" stroke-width="1.2"/>
  <circle cx="30" cy="131" r="2.2" fill="#5DCAA5"/>

  <line x1="56" y1="75" x2="36" y2="55" stroke="#3a3470" stroke-width="1" stroke-dasharray="3 2"/>
  <circle cx="30" cy="49" r="6" fill="#161628" stroke="#534AB7" stroke-width="1.2"/>
  <circle cx="30" cy="49" r="2.2" fill="#AFA9EC"/>

  <text x="172" y="100"
        font-family="'Inter', system-ui, sans-serif"
        font-weight="700" font-size="52" letter-spacing="-1.5"
        fill="#f0f0ec">FIFN</text>

  <text x="174" y="122"
        font-family="'Inter', system-ui, sans-serif"
        font-weight="600" font-size="9" letter-spacing="2.2"
        fill="#8a86d8">FEDERATED INSURANCE</text>

  <text x="174" y="138"
        font-family="'Inter', system-ui, sans-serif"
        font-weight="400" font-size="9" letter-spacing="0.3"
        fill="#a0a0b8">Fraud Network · Flock.io</text>
</svg>
